<?xml version="1.0" encoding="UTF-8"?>
<svg id="svg170" xmlns="http://www.w3.org/2000/svg" xmlns:xlink="http://www.w3.org/1999/xlink" xmlns:svg="http://www.w3.org/2000/svg" xmlns:rdf="http://www.w3.org/1999/02/22-rdf-syntax-ns#" xmlns:dc="http://purl.org/dc/elements/1.1/" xmlns:cc="http://creativecommons.org/ns#" version="1.1" viewBox="0 0 2000 2000">
  <!-- Generator: Adobe Illustrator 29.7.1, SVG Export Plug-In . SVG Version: 2.1.1 Build 8)  -->
  <defs>
    <style>
      .st0 {
        fill: url(#linear-gradient2);
      }

      .st1 {
        fill: url(#linear-gradient1);
      }

      .st2 {
        fill: url(#linear-gradient9);
      }

      .st3 {
        fill: url(#linear-gradient3);
      }

      .st4 {
        fill: url(#linear-gradient6);
      }

      .st5 {
        fill: url(#linear-gradient8);
      }

      .st6 {
        fill: url(#linear-gradient7);
      }

      .st7 {
        fill: url(#linear-gradient5);
      }

      .st8 {
        fill: url(#linear-gradient4);
      }

      .st9 {
        fill: navy;
      }

      .st10 {
        fill: url(#linear-gradient11);
      }

      .st11 {
        fill: url(#linear-gradient10);
      }

      .st12 {
        fill: url(#linear-gradient);
      }

      .st13 {
        fill: #ff8c00;
      }
    </style>
    <linearGradient id="linear-gradient" x1="833.66" y1="1360.91" x2="1012.48" y2="1360.91" gradientTransform="translate(-4521.24 8286.28) scale(6.64 -6.64)" gradientUnits="userSpaceOnUse">
      <stop offset="0" stop-color="#00285f"/>
      <stop offset="1" stop-color="#000e44"/>
    </linearGradient>
    <linearGradient id="linear-gradient1" x1="902.63" y1="1402.44" x2="975.81" y2="1402.44" gradientTransform="translate(-4521.24 8286.28) scale(6.64 -6.64)" gradientUnits="userSpaceOnUse">
      <stop offset="0" stop-color="#00285f"/>
      <stop offset="1" stop-color="#000e44"/>
    </linearGradient>
    <linearGradient id="linear-gradient2" x1="899.11" y1="1207.72" x2="1039.23" y2="1207.72" gradientTransform="translate(-4521.24 8286.28) scale(6.64 -6.64)" gradientUnits="userSpaceOnUse">
      <stop offset="0" stop-color="#007bb6"/>
      <stop offset=".36" stop-color="#00639b" stop-opacity=".96"/>
      <stop offset=".77" stop-color="#004c82" stop-opacity=".93"/>
      <stop offset="1" stop-color="#004378" stop-opacity=".92"/>
    </linearGradient>
    <linearGradient id="linear-gradient3" x1="1011.89" y1="1208.26" x2="1085.07" y2="1208.26" gradientTransform="translate(-4521.24 8286.28) scale(6.64 -6.64)" gradientUnits="userSpaceOnUse">
      <stop offset="0" stop-color="#007bb6"/>
      <stop offset=".36" stop-color="#00639b" stop-opacity=".96"/>
      <stop offset=".77" stop-color="#004c82" stop-opacity=".93"/>
      <stop offset="1" stop-color="#004378" stop-opacity=".92"/>
    </linearGradient>
    <linearGradient id="linear-gradient4" x1="827.18" y1="1070.95" x2="1008.72" y2="1070.95" gradientTransform="translate(-4521.24 8286.28) scale(6.64 -6.64)" gradientUnits="userSpaceOnUse">
      <stop offset=".3" stop-color="#e8891c"/>
      <stop offset="1" stop-color="#e5721e"/>
    </linearGradient>
    <linearGradient id="linear-gradient5" x1="896.31" y1="1015.9" x2="969.48" y2="1015.9" gradientTransform="translate(-4521.24 8286.28) scale(6.64 -6.64)" gradientUnits="userSpaceOnUse">
      <stop offset=".3" stop-color="#e8891c"/>
      <stop offset="1" stop-color="#e5721e"/>
    </linearGradient>
    <linearGradient id="linear-gradient6" x1="637.47" y1="1061.64" x2="816.29" y2="1061.64" gradientTransform="translate(-4521.24 8286.28) scale(6.64 -6.64)" gradientUnits="userSpaceOnUse">
      <stop offset="0" stop-color="#00285f"/>
      <stop offset="1" stop-color="#000e44"/>
    </linearGradient>
    <linearGradient id="linear-gradient7" x1="674.15" y1="1020.11" x2="747.33" y2="1020.11" gradientTransform="translate(-4521.24 8286.28) scale(6.64 -6.64)" gradientUnits="userSpaceOnUse">
      <stop offset="0" stop-color="#00285f"/>
      <stop offset="1" stop-color="#000e44"/>
    </linearGradient>
    <linearGradient id="linear-gradient8" x1="610.72" y1="1214.82" x2="750.85" y2="1214.82" gradientTransform="translate(-4521.24 8286.28) scale(6.64 -6.64)" gradientUnits="userSpaceOnUse">
      <stop offset="0" stop-color="#007bb6"/>
      <stop offset=".36" stop-color="#00639b" stop-opacity=".96"/>
      <stop offset=".77" stop-color="#004c82" stop-opacity=".93"/>
      <stop offset="1" stop-color="#004378" stop-opacity=".92"/>
    </linearGradient>
    <linearGradient id="linear-gradient9" x1="564.88" y1="1214.28" x2="638.06" y2="1214.28" gradientTransform="translate(-4521.24 8286.28) scale(6.64 -6.64)" gradientUnits="userSpaceOnUse">
      <stop offset="0" stop-color="#007bb6"/>
      <stop offset=".36" stop-color="#00639b" stop-opacity=".96"/>
      <stop offset=".77" stop-color="#004c82" stop-opacity=".93"/>
      <stop offset="1" stop-color="#004378" stop-opacity=".92"/>
    </linearGradient>
    <linearGradient id="linear-gradient10" x1="641.23" y1="1351.6" x2="822.78" y2="1351.6" gradientTransform="translate(-4521.24 8286.28) scale(6.64 -6.64)" gradientUnits="userSpaceOnUse">
      <stop offset=".3" stop-color="#e8891c"/>
      <stop offset="1" stop-color="#e5721e"/>
    </linearGradient>
    <linearGradient id="linear-gradient11" x1="680.47" y1="1406.65" x2="753.65" y2="1406.65" gradientTransform="translate(-4521.24 8286.28) scale(6.64 -6.64)" gradientUnits="userSpaceOnUse">
      <stop offset=".3" stop-color="#e8891c"/>
      <stop offset="1" stop-color="#e5721e"/>
    </linearGradient>
  </defs>
  <g id="id_1643305441605">
    <g id="g131">
      <g id="Layer_1">
        <path id="path13" class="st12" d="M1104.48-238.98s28.6-707.41,70.89-644.2c97.66,145.95,204.18,363.08,663.09,372.1,66.42,1.27-196.13,186.91-343.25,245.14,0,0,278.84,57.59,679.93-225.72,54.44-38.45,42.06-165.02-90.28-147.92-142.1,18.39-438.98-12.53-559.63-124.21-103.25-95.6-209.03-293.87-308.6-470.84-37.17-66.22-150.84-42.51-171.5,62.6,0,0-91.98,701.48,59.34,933.05h0Z"/>
      </g>
      <g id="g23">
        <path id="path21" class="st1" d="M1851.15-827.39c-82.45,53.57-189.05,52.19-270.09-3.48-81.04-55.68-120.55-154.69-100.12-250.87,20.44-96.18,96.8-170.57,193.48-188.48s194.63,24.17,248.17,106.64c35.12,54.05,47.32,119.85,33.92,182.9-13.4,63.05-51.3,118.2-105.36,153.3Z"/>
      </g>
      <g id="g36">
        <path id="path34" class="st0" d="M1452.24,117.38s628.8-325.37,594.81-257.33c-78.47,157.11-214.38,357.15,4.97,760.34,31.78,58.33-259.5-77.87-382.92-176.87,0,0,88.01,270.79,532.73,479.02,60.36,28.26,164.2-45.15,83.83-151.67-86.33-114.36-206.44-387.61-169.13-547.73,31.95-137.04,151.85-327.1,256.31-501.22,39.14-65.07-37.74-152.11-139.3-118.02,0,0-655.02,267.36-781.31,513.48h0Z"/>
      </g>
      <g id="g49">
        <path id="path47" class="st3" d="M2333.13,474.83c-87.36-45.12-138.94-138.42-130.68-236.39,8.26-97.98,74.73-181.33,168.41-211.18s196.12-.34,259.55,74.79c63.43,75.13,75.35,181.07,30.2,268.42-29.58,57.27-80.7,100.45-142.12,120.02-61.42,19.57-128.09,13.94-185.36-15.65h0Z"/>
      </g>
      <g id="g58">
        <path id="path56" class="st8" d="M1296.44,609.35s598.87,377.63,522.99,382.75c-175.21,11.85-416.54-4.13-653.24,389.12-34.22,56.93-64.18-263.22-41.27-419.77,0,0-189,212.96-143.5,701.9,6.18,66.36,122.05,118.77,173.24-4.47,54.94-132.34,229.81-374.23,386.78-423.09,134.36-41.8,358.96-34.6,562.01-32.63,75.93.82,112.08-109.53,31.28-179.87,0,0-562.11-429.61-838.3-413.95h0Z"/>
      </g>
      <g id="g67">
        <path id="path65" class="st7" d="M1434.01,1549.99c-5.31-98.18,49.06-189.89,137.73-232.35,88.68-42.47,194.21-27.33,267.37,38.35,73.16,65.68,99.55,168.97,66.86,261.7-32.69,92.73-118.03,156.63-216.21,161.9-64.37,3.48-127.48-18.76-175.44-61.82-47.97-43.06-76.86-103.42-80.32-167.78h0Z"/>
      </g>
      <g id="g76">
        <path id="path74" class="st4" d="M815.02,716.65s-28.6,707.41-70.89,644.2c-97.66-145.95-204.18-363.08-663.09-372.1-66.42-1.27,196.13-186.91,343.25-245.14,0,0-278.84-57.59-679.93,225.72-54.44,38.45-42.06,165.02,90.28,147.92,142.1-18.39,438.98,12.53,559.63,124.21,103.25,95.6,209.03,293.87,308.6,470.84,37.17,66.22,150.84,42.51,171.5-62.6,0,0,91.98-701.48-59.34-933.05h0Z"/>
      </g>
      <g id="g85">
        <path id="path83" class="st6" d="M68.34,1305.06c82.45-53.57,189.05-52.19,270.09,3.48,81.04,55.68,120.55,154.69,100.12,250.87-20.44,96.18-96.8,170.57-193.48,188.48-96.68,17.92-194.63-24.17-248.17-106.64-35.12-54.05-47.32-119.85-33.92-182.9,13.4-63.05,51.3-118.2,105.36-153.3Z"/>
      </g>
      <g id="g98">
        <path id="path96" class="st5" d="M467.25,360.29S-161.54,685.66-127.56,617.62c78.47-157.11,214.38-357.15-4.97-760.34-31.78-58.33,259.5,77.87,382.92,176.87,0,0-88.01-270.79-532.73-479.02-60.36-28.26-164.2,45.15-83.83,151.67C-279.84-178.83-159.73,94.42-197.04,254.54c-31.95,137.04-151.85,327.1-256.31,501.22-39.14,65.07,37.74,152.11,139.3,118.02,0,0,655.02-267.36,781.31-513.48Z"/>
      </g>
      <g id="g111">
        <path id="path109" class="st2" d="M-413.64,2.84c87.36,45.12,138.94,138.42,130.68,236.39-8.26,97.98-74.73,181.33-168.41,211.18-93.68,29.86-196.12.34-259.55-74.79-63.43-75.13-75.35-181.07-30.2-268.42,29.58-57.27,80.7-100.45,142.12-120.02,61.42-19.57,128.09-13.94,185.36,15.65Z"/>
      </g>
      <g id="g120">
        <path id="path118" class="st11" d="M623.05-131.67S24.18-509.3,100.06-514.43c175.21-11.85,416.54,4.13,653.24-389.12,34.22-56.93,64.18,263.22,41.27,419.77,0,0,189-212.96,143.5-701.9-6.18-66.36-122.05-118.77-173.24,4.47-54.94,132.34-229.81,374.23-386.79,423.09-134.36,41.8-358.96,34.6-562.01,32.63-75.93-.82-112.08,109.53-31.28,179.87,0,0,562.11,429.61,838.3,413.95h0Z"/>
      </g>
      <g id="g129">
        <path id="path127" class="st10" d="M485.48-1072.32c5.31,98.18-49.06,189.89-137.73,232.35-88.68,42.47-194.21,27.33-267.37-38.35C7.21-944-19.18-1047.29,13.52-1140.02c32.69-92.73,118.03-156.63,216.21-161.9,64.37-3.48,127.48,18.76,175.44,61.82,47.97,43.06,76.86,103.42,80.32,167.78Z"/>
      </g>
    </g>
  </g>
  <g id="id_1739831247211">
    <g id="text142">
      <path id="path178" class="st9" d="M494.7,452.06v-7.24h-15.2c-10.62,0-20.03-3.62-28.24-10.86-7.72-7.72-11.58-16.89-11.58-27.51V-64.9h-7.24c-7.24,8.21-14.72,15.2-22.45,21-7.72,5.31-15.69,9.65-23.89,13.03-8.21,2.9-16.89,5.31-26.07,7.24-8.69,1.93-17.86,3.62-27.51,5.07v7.24h27.51c11.1,0,19.31,3.14,24.62,9.41,5.79,5.79,8.69,14.48,8.69,26.07v381.57c0,10.62-3.86,19.79-11.58,27.51-7.72,7.72-17.14,11.58-28.24,11.58h-15.2l-.72,7.24h157.12Z"/>
      <path id="path180" class="st9" d="M653.27,478.85l-2.17-5.07c34.27-9.65,63.47-25.1,87.61-46.34,24.13-21.24,43.68-46.58,58.65-76.02,15.45-29.44,26.79-61.3,34.03-95.57,7.24-34.75,10.86-70.23,10.86-106.43,0-39.1-4.1-72.89-12.31-101.37-8.21-28.96-20.51-51.17-36.93-66.61-16.41-15.45-37.17-23.17-62.27-23.17-22.69,0-41.51,6.28-56.47,18.82-14.48,12.55-25.1,29.2-31.86,49.96-6.76,20.27-9.9,42.48-9.41,66.61.48,23.17,4.34,43.92,11.58,62.27,7.72,18.34,18.82,32.58,33.31,42.72,14.48,10.14,32.1,14.96,52.85,14.48,14.96-.48,29.44-3.62,43.44-9.41,14.48-6.27,26.55-15.69,36.2-28.24l3.62,6.52c-12.07,15.45-26.07,27.75-41.99,36.93-15.93,9.17-32.58,15.2-49.96,18.1-17.38,2.9-34.51,2.41-51.41-1.45-16.41-4.34-31.62-11.83-45.61-22.45-13.52-11.1-24.38-25.58-32.58-43.44-8.21-18.34-12.79-40.3-13.76-65.89-.97-34.27,5.07-63.72,18.1-88.33,13.03-24.62,31.13-43.68,54.3-57.2,23.65-14,50.2-21.24,79.64-21.72,50.2-.97,90.26,16.89,120.19,53.58,30.41,36.2,45.61,87.85,45.61,154.94,0,36.2-4.83,73.13-14.48,110.78-9.65,37.17-24.62,72.16-44.89,104.99-19.79,32.34-44.89,59.13-75.3,80.37-30.41,21.24-66.61,33.79-108.61,37.65Z"/>
      <path id="path182" class="st9" d="M1159.37-64.9c35.24,0,65.4,10.62,90.5,31.86,25.58,21.24,45.13,51.65,58.65,91.23,14,39.1,21,85.92,21,140.46,0,54.54-7,101.61-21,141.19-13.52,39.1-33.06,69.27-58.65,90.5-25.1,21.24-55.27,31.86-90.5,31.86s-65.65-10.62-91.23-31.86c-25.1-21.24-44.65-51.41-58.65-90.5-13.52-39.58-20.27-86.64-20.27-141.19s6.76-101.37,20.27-140.46c14-39.58,33.55-69.99,58.65-91.23,25.58-21.24,55.99-31.86,91.23-31.86h0ZM1159.37-43.18c-36.68,0-65.89,21.72-87.61,65.16-21.24,42.96-31.86,101.85-31.86,176.66s10.62,133.95,31.86,177.39c21.72,42.96,50.92,64.44,87.61,64.44s66.37-21.48,87.61-64.44c21.24-43.44,31.86-102.57,31.86-177.39s-10.62-133.71-31.86-176.66c-21.24-43.44-50.44-65.16-87.61-65.16Z"/>
      <path id="path184" class="st9" d="M1580.76,452.06v-7.24h-15.2c-10.62,0-20.03-3.62-28.24-10.86-7.72-7.72-11.58-16.89-11.58-27.51V-64.9h-7.24c-7.24,8.21-14.72,15.2-22.45,21-7.72,5.31-15.69,9.65-23.89,13.03-8.21,2.9-16.89,5.31-26.07,7.24-8.69,1.93-17.86,3.62-27.51,5.07v7.24h27.51c11.1,0,19.31,3.14,24.62,9.41,5.79,5.79,8.69,14.48,8.69,26.07v381.57c0,10.62-3.86,19.79-11.58,27.51-7.72,7.72-17.14,11.58-28.24,11.58h-15.2l-.72,7.24h157.12Z"/>
    </g>
  </g>
  <g id="id_1739831303233">
    <g id="text162">
      <path id="path187" class="st9" d="M-676.99,2114.3v-1.49h-3.12c-2.18,0-4.11-.74-5.79-2.23-1.58-1.58-2.38-3.47-2.38-5.64v-96.69h-1.49c-1.49,1.68-3.02,3.12-4.6,4.31-1.58,1.09-3.22,1.98-4.9,2.67-1.68.59-3.47,1.09-5.35,1.49-1.78.4-3.66.74-5.64,1.04v1.49h5.64c2.28,0,3.96.64,5.05,1.93,1.19,1.19,1.78,2.97,1.78,5.35v78.27c0,2.18-.79,4.06-2.38,5.64-1.58,1.58-3.52,2.38-5.79,2.38h-3.12l-.15,1.49h32.23Z"/>
      <path id="path189" class="st9" d="M-644.46,2119.8l-.45-1.04c7.03-1.98,13.02-5.15,17.97-9.51,4.95-4.36,8.96-9.56,12.03-15.6,3.17-6.04,5.5-12.58,6.98-19.61,1.49-7.13,2.23-14.41,2.23-21.83,0-8.02-.84-14.95-2.52-20.79-1.68-5.94-4.21-10.5-7.57-13.66-3.37-3.17-7.62-4.75-12.77-4.75-4.65,0-8.52,1.29-11.58,3.86-2.97,2.57-5.15,5.99-6.54,10.25-1.39,4.16-2.03,8.71-1.93,13.66.1,4.75.89,9.01,2.38,12.77,1.58,3.76,3.86,6.68,6.83,8.76,2.97,2.08,6.58,3.07,10.84,2.97,3.07-.1,6.04-.74,8.91-1.93,2.97-1.29,5.45-3.22,7.43-5.79l.74,1.34c-2.48,3.17-5.35,5.69-8.61,7.57-3.27,1.88-6.68,3.12-10.25,3.71s-7.08.5-10.55-.3c-3.37-.89-6.49-2.43-9.36-4.6-2.77-2.28-5-5.25-6.68-8.91-1.68-3.76-2.62-8.27-2.82-13.52-.2-7.03,1.04-13.07,3.71-18.12,2.67-5.05,6.39-8.96,11.14-11.73,4.85-2.87,10.3-4.36,16.34-4.46,10.3-.2,18.52,3.47,24.66,10.99,6.24,7.43,9.36,18.02,9.36,31.78,0,7.43-.99,15-2.97,22.72-1.98,7.62-5.05,14.8-9.21,21.54-4.06,6.63-9.21,12.13-15.45,16.49-6.24,4.36-13.66,6.93-22.28,7.72Z"/>
      <path id="path191" class="st9" d="M-540.64,2008.26c7.23,0,13.42,2.18,18.57,6.54,5.25,4.36,9.26,10.59,12.03,18.71,2.87,8.02,4.31,17.62,4.31,28.81s-1.44,20.84-4.31,28.96c-2.77,8.02-6.78,14.21-12.03,18.57-5.15,4.36-11.34,6.54-18.57,6.54s-13.47-2.18-18.71-6.54c-5.15-4.36-9.16-10.55-12.03-18.57-2.77-8.12-4.16-17.77-4.16-28.96s1.39-20.79,4.16-28.81c2.87-8.12,6.88-14.36,12.03-18.71,5.25-4.36,11.49-6.54,18.71-6.54ZM-540.64,2012.71c-7.53,0-13.52,4.46-17.97,13.37-4.36,8.81-6.53,20.89-6.54,36.24,0,15.35,2.18,27.48,6.54,36.39,4.46,8.81,10.45,13.22,17.97,13.22,7.62,0,13.61-4.41,17.97-13.22,4.36-8.91,6.54-21.04,6.54-36.39s-2.18-27.43-6.54-36.24c-4.36-8.91-10.35-13.37-17.97-13.37Z"/>
      <path id="path193" class="st9" d="M-454.2,2114.3v-1.49h-3.12c-2.18,0-4.11-.74-5.79-2.23-1.58-1.58-2.38-3.47-2.38-5.64v-96.69h-1.49c-1.49,1.68-3.02,3.12-4.6,4.31-1.58,1.09-3.22,1.98-4.9,2.67-1.68.59-3.47,1.09-5.35,1.49-1.78.4-3.66.74-5.64,1.04v1.49h5.64c2.28,0,3.96.64,5.05,1.93,1.19,1.19,1.78,2.97,1.78,5.35v78.27c0,2.18-.79,4.06-2.38,5.64-1.58,1.58-3.52,2.38-5.79,2.38h-3.12l-.15,1.49h32.23Z"/>
      <path id="path195" class="st9" d="M-302.71,2070.94l-1.78,23.32c-2.57,4.26-5.84,8.07-9.8,11.44-3.86,3.27-8.47,5.89-13.81,7.87-5.25,1.88-11.29,2.82-18.12,2.82-10.3-.1-19.46-2.38-27.48-6.83-8.02-4.46-14.31-10.69-18.86-18.71-4.46-8.12-6.68-17.67-6.68-28.67s2.23-20.2,6.68-28.22c4.46-8.12,10.69-14.41,18.71-18.86,8.12-4.55,17.62-6.83,28.52-6.83,7.33,0,13.91.99,19.75,2.97,5.94,1.88,11.09,4.26,15.45,7.13l2.97,20.94h-1.34c-2.18-8.71-6.63-15.3-13.37-19.75-6.73-4.55-14.56-6.83-23.47-6.83s-16.29,2.08-22.72,6.24c-6.34,4.06-11.29,9.8-14.85,17.23-3.47,7.33-5.2,15.94-5.2,25.84s1.73,18.57,5.2,25.99c3.56,7.43,8.47,13.22,14.7,17.38,6.34,4.16,13.66,6.34,21.98,6.54,7.03,0,13.52-1.29,19.46-3.86,6.04-2.67,11.09-6.98,15.15-12.92,4.06-6.04,6.63-14.11,7.72-24.21h1.19Z"/>
      <path id="path197" class="st9" d="M-237.8,2023.11c6.93,0,13.42,1.14,19.46,3.42,6.14,2.18,11.49,5.35,16.04,9.51,4.65,4.16,8.27,9.11,10.84,14.85,2.57,5.64,3.86,11.93,3.86,18.86,0,6.93-1.29,13.27-3.86,19.01-2.57,5.64-6.19,10.55-10.84,14.7-4.55,4.16-9.9,7.38-16.04,9.65-6.04,2.18-12.53,3.27-19.46,3.27s-13.42-1.09-19.46-3.27c-6.04-2.28-11.39-5.5-16.04-9.65-4.55-4.16-8.12-9.06-10.69-14.7-2.57-5.74-3.86-12.08-3.86-19.01s1.29-13.22,3.86-18.86c2.57-5.74,6.14-10.69,10.69-14.85,4.65-4.16,10-7.33,16.04-9.51,6.04-2.28,12.53-3.42,19.46-3.42ZM-237.8,2111.93c7.33,0,13.96-1.78,19.9-5.35,5.94-3.56,10.64-8.52,14.11-14.85,3.47-6.34,5.2-13.66,5.2-21.98s-1.73-15.74-5.2-21.98c-3.47-6.34-8.17-11.29-14.11-14.85-5.94-3.56-12.58-5.35-19.9-5.35-7.23,0-13.81,1.78-19.75,5.35-5.94,3.56-10.64,8.52-14.11,14.85-3.47,6.24-5.2,13.57-5.2,21.98s1.73,15.64,5.2,21.98c3.47,6.34,8.17,11.29,14.11,14.85,5.94,3.56,12.53,5.35,19.75,5.35Z"/>
      <path id="path199" class="st9" d="M-78.14,2023.11l1.34,9.65-34.75,68.47s-.4.84-1.19,2.52c-.69,1.68-1.44,3.71-2.23,6.09-.79,2.28-1.39,4.46-1.78,6.54h-1.49l-2.08-9.36,42.18-83.92ZM-165.18,2104.35v9.95h-15.45v-1.49h1.04c.79,0,1.19,0,1.19,0,2.57,0,4.8-.74,6.68-2.23,1.98-1.49,3.12-3.56,3.42-6.24h3.12ZM-160.72,2106.58c-.1,1.49.25,2.92,1.04,4.31.79,1.29,2.28,1.98,4.46,2.08h2.08v1.34h-8.47v-7.72h.89ZM-156.71,2023.11h1.49l2.97,8.76-9.21,82.43h-8.17l12.92-91.19ZM-155.23,2023.11l40.4,77.68-3.42,15.6-39.8-76.94,2.82-16.34ZM-76.8,2023.11l13.37,91.19h-11.29l-9.65-74.71,6.24-16.49h1.34ZM-67.89,2104.35h2.97c.4,2.67,1.58,4.75,3.56,6.24,1.98,1.49,4.21,2.23,6.68,2.23,0,0,.35,0,1.04,0h1.19v1.49h-15.45v-9.95ZM-75.76,2106.58h1.04v7.72h-8.61v-1.34h2.23c2.28-.1,3.76-.84,4.46-2.23.79-1.39,1.09-2.77.89-4.16Z"/>
      <path id="path201" class="st9" d="M52.26,2023.11l1.34,9.65-34.75,68.47s-.4.84-1.19,2.52c-.69,1.68-1.44,3.71-2.23,6.09-.79,2.28-1.39,4.46-1.78,6.54h-1.49l-2.08-9.36,42.18-83.92ZM-34.77,2104.35v9.95h-15.45v-1.49h2.23c2.57,0,4.8-.74,6.68-2.23,1.98-1.49,3.12-3.56,3.42-6.24h3.12ZM-30.32,2106.58c-.1,1.49.25,2.92,1.04,4.31.79,1.29,2.28,1.98,4.46,2.08h2.08v1.34h-8.47v-7.72h.89ZM-26.31,2023.11h1.49l2.97,8.76-9.21,82.43h-8.17l12.92-91.19ZM-24.82,2023.11l40.4,77.68-3.42,15.6-39.8-76.94,2.82-16.34ZM53.6,2023.11l13.37,91.19h-11.29l-9.65-74.71,6.24-16.49h1.34ZM62.51,2104.35h2.97c.4,2.67,1.58,4.75,3.56,6.24,1.98,1.49,4.21,2.23,6.68,2.23h2.23v1.49h-15.45v-9.95ZM54.64,2106.58h1.04v7.72h-8.61v-1.34h2.23c2.28-.1,3.76-.84,4.46-2.23.79-1.39,1.09-2.77.89-4.16Z"/>
      <path id="path203" class="st9" d="M103.06,2025.19v56.14c0,9.6,2.43,17.18,7.28,22.72,4.95,5.54,11.68,8.32,20.2,8.32,9.41,0,16.78-2.62,22.13-7.87,5.45-5.25,8.17-12.43,8.17-21.54v-57.78h6.83v57.78c0,10.3-3.32,18.47-9.95,24.51-6.54,5.94-15.55,8.91-27.03,8.91-11.39,0-20.45-2.97-27.18-8.91-6.63-5.94-9.95-14.06-9.95-24.36v-57.92h9.51ZM93.85,2025.19v7.87h-.3c-.1-1.78-.84-3.27-2.23-4.46-1.29-1.29-2.92-1.93-4.9-1.93h-2.23v-1.49h9.65ZM112.41,2025.19v1.49h-2.23c-1.88,0-3.56.64-5.05,1.93-1.39,1.19-2.08,2.67-2.08,4.46h-.3v-7.87h9.65ZM161.13,2025.19v7.87h-.3c0-1.78-.69-3.27-2.08-4.46-1.39-1.29-3.07-1.93-5.05-1.93h-2.23v-1.49h9.65ZM177.02,2025.19v1.49h-2.23c-1.88,0-3.52.64-4.9,1.93-1.39,1.19-2.13,2.67-2.23,4.46h-.3v-7.87h9.65Z"/>
      <path id="path205" class="st9" d="M198.26,2022.96l82.28,77.53,1.49,15.89-82.28-77.98-1.49-15.45ZM198.56,2105.1v9.21h-11.14v-1.49h2.52c2.28,0,4.21-.74,5.79-2.23,1.58-1.49,2.38-3.32,2.38-5.5h.45ZM204.8,2105.1c0,2.18.79,4.01,2.38,5.5,1.68,1.49,3.61,2.23,5.79,2.23h2.52v1.49h-11.14v-9.21h.45ZM198.26,2022.96l6.39,8.32.15,83.02h-6.68v-72.78c0-5.05-.25-9.41-.74-13.07l-.59-5.5h1.49ZM282.03,2025.19v72.18c0,3.17.1,6.24.3,9.21.2,2.87.4,5.25.59,7.13.3,1.78.45,2.67.45,2.67h-1.34l-6.54-7.87v-83.32h6.54ZM281.58,2034.4v-9.21h11.14v1.49h-1.34c-.79,0-1.19,0-1.19,0-2.18,0-4.11.74-5.79,2.23-1.58,1.49-2.38,3.32-2.38,5.5h-.45ZM275.49,2034.4c-.1-2.18-.94-4.01-2.52-5.5-1.58-1.49-3.52-2.23-5.79-2.23h-2.52v-1.49h11.14v9.21h-.3Z"/>
      <path id="path207" class="st9" d="M327.63,2025.19v89.11h-9.36v-89.11h9.36ZM318.71,2104.8v9.51h-12.62v-1.49h2.08c2.77,0,5.1-.79,6.98-2.38,1.98-1.58,3.02-3.47,3.12-5.64h.45ZM327.18,2104.8h.45c.1,2.18,1.09,4.06,2.97,5.64,1.98,1.58,4.36,2.38,7.13,2.38h1.93l.15,1.49h-12.62v-9.51ZM327.18,2034.7v-9.51h12.62l-.15,1.49h-1.93c-2.77,0-5.15.79-7.13,2.38-1.88,1.49-2.87,3.37-2.97,5.64h-.45ZM318.71,2034.7h-.45c-.1-2.28-1.14-4.16-3.12-5.64-1.88-1.58-4.21-2.38-6.98-2.38h-1.19c-.59,0-.89,0-.89,0v-1.49h12.62v9.51Z"/>
      <path id="path209" class="st9" d="M395.65,2025.64v88.67h-9.65v-88.67h9.65ZM431.59,2025.04v4.46h-81.54v-4.46h81.54ZM431.59,2029.2v10.25h-1.63v-2.38c0-2.08-.69-3.81-2.08-5.2-1.29-1.49-3.07-2.28-5.35-2.38v-.3h9.06ZM431.59,2022.66v3.86l-16.63-1.49c1.98,0,4.06-.1,6.24-.3,2.28-.3,4.36-.64,6.24-1.04s3.27-.74,4.16-1.04ZM386.29,2104.8v9.51h-10.84v-1.49h1.78c2.38,0,4.41-.79,6.09-2.38,1.68-1.58,2.57-3.47,2.67-5.64h.3ZM395.2,2104.8h.45c.1,2.18.99,4.06,2.67,5.64,1.68,1.58,3.71,2.38,6.09,2.38h1.63v1.49h-10.84v-9.51ZM359.11,2029.2v.3c-2.28.1-4.11.89-5.5,2.38-1.29,1.39-1.93,3.12-1.93,5.2v2.38h-1.63v-10.25h9.06ZM350.05,2022.66c.89.3,2.23.64,4.01,1.04,1.88.4,3.96.74,6.24,1.04,2.28.2,4.41.3,6.39.3l-16.63,1.49v-3.86Z"/>
      <path id="path211" class="st9" d="M457.29,2025.34l27.48,48.86-6.09,5.2-34.31-54.06h12.92ZM486.99,2075.99v38.32h-9.65v-38.32h9.65ZM511.94,2025.34h9.36l-35.35,53.77-5.5-1.63,31.49-52.13ZM506.3,2034.7c1.09-1.98,1.14-3.81.15-5.5-.99-1.68-2.57-2.52-4.75-2.52h-1.78v-1.49h31.04v1.49h-1.78c-2.77,0-5.4.79-7.87,2.38-2.38,1.49-4.26,3.22-5.64,5.2l-9.36.45ZM462.49,2034.55l-12.62-.45c-1.58-2.28-3.56-4.06-5.94-5.35-2.28-1.39-4.85-2.08-7.72-2.08h-1.78v-1.49h34.46v1.49h-1.78c-2.18,0-3.76.89-4.75,2.67-.89,1.68-.84,3.42.15,5.2h0ZM477.78,2104.8v9.51h-10.84v-1.49h1.78c2.38,0,4.36-.79,5.94-2.38,1.68-1.58,2.57-3.47,2.67-5.64h.45ZM486.55,2104.8h.45c.1,2.18.94,4.06,2.52,5.64,1.68,1.58,3.71,2.38,6.09,2.38h1.78v1.49h-10.84v-9.51Z"/>
      <path id="path213" class="st9" d="M597.34,2010.34v103.97h-9.65v-103.97h9.65ZM588.14,2103.46v10.84h-11.88v-1.49h1.93c2.57,0,4.75-.89,6.54-2.67,1.88-1.88,2.87-4.11,2.97-6.68h.45ZM588.14,2021.18h-.45c-.1-2.57-1.09-4.75-2.97-6.54-1.78-1.88-3.96-2.82-6.54-2.82h-1.93v-1.49h11.88v10.84ZM596.9,2103.46h.45c.1,2.57,1.04,4.8,2.82,6.68,1.88,1.78,4.11,2.67,6.68,2.67h1.93v1.49h-11.88v-10.84ZM596.9,2021.18v-10.84h11.88v1.49h-1.93c-2.57,0-4.8.94-6.68,2.82-1.78,1.78-2.72,3.96-2.82,6.54h-.45Z"/>
      <path id="path215" class="st9" d="M721.21,2023.11l1.34,9.65-34.75,68.47s-.4.84-1.19,2.52c-.69,1.68-1.44,3.71-2.23,6.09-.79,2.28-1.39,4.46-1.78,6.54h-1.49l-2.08-9.36,42.18-83.92ZM634.18,2104.35v9.95h-15.45v-1.49h2.23c2.57,0,4.8-.74,6.68-2.23,1.98-1.49,3.12-3.56,3.42-6.24h3.12ZM638.63,2106.58c-.1,1.49.25,2.92,1.04,4.31.79,1.29,2.28,1.98,4.46,2.08h2.08v1.34h-8.47v-7.72h.89ZM642.64,2023.11h1.49l2.97,8.76-9.21,82.43h-8.17l12.92-91.19ZM644.13,2023.11l40.4,77.68-3.42,15.6-39.8-76.94,2.82-16.34ZM722.55,2023.11l13.37,91.19h-11.29l-9.65-74.71,6.24-16.49h1.34ZM731.46,2104.35h2.97c.4,2.67,1.58,4.75,3.56,6.24,1.98,1.49,4.21,2.23,6.68,2.23h2.23v1.49h-15.45v-9.95ZM723.59,2106.58h1.04v7.72h-8.61v-1.34h2.23c2.28-.1,3.76-.84,4.46-2.23.79-1.39,1.09-2.77.89-4.16h0Z"/>
      <path id="path217" class="st9" d="M774.39,2025.19h16.49c6.93,0,12.92,1.04,17.97,3.12,5.05,1.98,8.96,4.9,11.73,8.76,2.77,3.76,4.16,8.27,4.16,13.52,0,5.64-1.29,10.5-3.86,14.56-2.48,3.96-5.79,7.03-9.95,9.21-4.16,2.08-8.76,3.12-13.81,3.12-5.05-.1-10.1-1.39-15.15-3.86v-1.49s.79.15,2.38.45c1.68.3,3.81.45,6.39.45,2.57-.1,5.3-.54,8.17-1.34,2.87-.89,5.54-2.48,8.02-4.75,2.57-2.28,4.6-5.54,6.09-9.8.4-1.09.64-2.38.74-3.86.2-1.49.3-2.87.3-4.16,0-6.04-2.08-10.79-6.24-14.26-4.16-3.47-9.9-5.2-17.23-5.2h-14.56s-.15-.35-.45-1.04c-.2-.79-.45-1.53-.74-2.23-.3-.79-.45-1.19-.45-1.19h0ZM776.32,2025.19v89.11h-9.51v-89.11h9.51ZM767.11,2104.8l1.93,9.51h-12.92v-1.49h2.08c2.38,0,4.36-.79,5.94-2.38,1.68-1.58,2.57-3.47,2.67-5.64h.3ZM767.11,2034.55h-.3c-.1-2.28-.99-4.16-2.67-5.64-1.58-1.49-3.56-2.23-5.94-2.23h-2.08v-1.49h12.92l-1.93,9.36ZM775.87,2104.8h.3c.1,2.18.94,4.06,2.52,5.64,1.68,1.58,3.71,2.38,6.09,2.38h2.08v1.49h-12.92l1.93-9.51Z"/>
      <path id="path219" class="st9" d="M858.45,2025.19v89.11h-9.51v-89.11h9.51ZM898.4,2109.7l-.3,4.6h-39.95v-4.6h40.25ZM906.72,2093.07l-8.17,21.24h-22.58l5.05-4.6c4.95,0,8.91-.69,11.88-2.08,3.07-1.49,5.54-3.47,7.43-5.94,1.88-2.57,3.52-5.45,4.9-8.61h1.49ZM849.24,2104.8l1.93,9.51h-12.92v-1.49h2.08c2.48,0,4.51-.79,6.09-2.38,1.58-1.58,2.43-3.47,2.52-5.64h.3ZM858,2034.7v-9.51h10.99v1.49s-.3,0-.89,0c-.59,0-.89,0-.89,0-2.38,0-4.46.79-6.24,2.38-1.68,1.49-2.52,3.37-2.52,5.64h-.45ZM849.24,2034.7h-.3c-.1-2.28-.99-4.16-2.67-5.64-1.68-1.58-3.76-2.38-6.24-2.38h-1.78v-1.49h10.99v9.51Z"/>
      <path id="path221" class="st9" d="M934.49,2025.19v89.11h-9.51v-89.11h9.51ZM974.45,2109.7l-.3,4.6h-39.95v-4.6h40.25ZM967.47,2067.52v4.46h-33.27v-4.46h33.27ZM974.3,2025.19v4.6h-40.1v-4.6h40.1ZM982.76,2093.07l-8.17,21.24h-22.58l5.05-4.6c4.95,0,8.91-.69,11.88-2.08,3.07-1.49,5.54-3.47,7.43-5.94,1.88-2.57,3.52-5.45,4.9-8.61h1.49ZM967.47,2071.68v8.47h-1.63v-1.93c0-1.68-.5-3.12-1.49-4.31-.99-1.29-2.52-1.93-4.6-1.93v-.3h7.72ZM967.47,2059.35v8.47h-7.72v-.3c2.08,0,3.61-.59,4.6-1.78.99-1.29,1.49-2.77,1.49-4.46v-1.93h1.63ZM974.3,2029.35v10.25h-1.63v-2.23c0-2.08-.69-3.86-2.08-5.35-1.29-1.49-3.07-2.23-5.35-2.23v-.45h9.06ZM974.3,2022.81v3.86l-16.93-1.49c3.07,0,6.34-.25,9.8-.74,3.47-.59,5.84-1.14,7.13-1.63ZM925.29,2104.8l1.93,9.51h-12.92v-1.49s.35,0,1.04,0c.69,0,1.04,0,1.04,0,2.48,0,4.51-.79,6.09-2.38,1.58-1.58,2.43-3.47,2.52-5.64h.3ZM925.29,2034.55h-.3c-.1-2.28-.94-4.16-2.52-5.64-1.58-1.49-3.61-2.23-6.09-2.23h-2.08v-1.49h12.92l-1.93,9.36Z"/>
      <path id="path223" class="st9" d="M1090.89,2023.11l1.34,9.65-34.75,68.47s-.4.84-1.19,2.52c-.69,1.68-1.44,3.71-2.23,6.09-.79,2.28-1.39,4.46-1.78,6.54h-1.49l-2.08-9.36,42.18-83.92ZM1003.85,2104.35v9.95h-15.45v-1.49h2.23c2.57,0,4.8-.74,6.68-2.23,1.98-1.49,3.12-3.56,3.42-6.24h3.12ZM1008.31,2106.58c-.1,1.49.25,2.92,1.04,4.31.79,1.29,2.28,1.98,4.46,2.08h2.08v1.34h-8.47v-7.72h.89ZM1012.32,2023.11h1.49l2.97,8.76-9.21,82.43h-8.17l12.92-91.19ZM1013.81,2023.11l40.4,77.68-3.42,15.6-39.8-76.94,2.82-16.34ZM1092.23,2023.11l13.37,91.19h-11.29l-9.65-74.71,6.24-16.49h1.34ZM1101.14,2104.35h2.97c.4,2.67,1.58,4.75,3.56,6.24,1.98,1.49,4.21,2.23,6.68,2.23h2.23v1.49h-15.45v-9.95ZM1093.27,2106.58h1.04v7.72h-8.61v-1.34h2.23c2.28-.1,3.76-.84,4.46-2.23.79-1.39,1.09-2.77.89-4.16Z"/>
      <path id="path225" class="st9" d="M1145.99,2025.19v89.11h-9.51v-89.11h9.51ZM1185.94,2109.7l-.3,4.6h-39.95v-4.6h40.25ZM1178.96,2067.52v4.46h-33.27v-4.46h33.27ZM1185.8,2025.19v4.6h-40.1v-4.6h40.1ZM1194.26,2093.07l-8.17,21.24h-22.58l5.05-4.6c4.95,0,8.91-.69,11.88-2.08,3.07-1.49,5.54-3.47,7.43-5.94,1.88-2.57,3.52-5.45,4.9-8.61h1.49ZM1178.96,2071.68v8.47h-1.63v-1.93c0-1.68-.5-3.12-1.49-4.31-.99-1.29-2.52-1.93-4.6-1.93v-.3h7.72ZM1178.96,2059.35v8.47h-7.72v-.3c2.08,0,3.61-.59,4.6-1.78.99-1.29,1.49-2.77,1.49-4.46v-1.93h1.63ZM1185.8,2029.35v10.25h-1.63v-2.23c0-2.08-.69-3.86-2.08-5.35-1.29-1.49-3.07-2.23-5.35-2.23v-.45h9.06ZM1185.8,2022.81v3.86l-16.93-1.49c3.07,0,6.34-.25,9.8-.74,3.47-.59,5.84-1.14,7.13-1.63ZM1136.78,2104.8l1.93,9.51h-12.92v-1.49s.35,0,1.04,0c.69,0,1.04,0,1.04,0,2.48,0,4.51-.79,6.09-2.38s2.43-3.47,2.52-5.64h.3ZM1136.78,2034.55h-.3c-.1-2.28-.94-4.16-2.52-5.64-1.58-1.49-3.61-2.23-6.09-2.23h-2.08v-1.49h12.92l-1.93,9.36Z"/>
      <path id="path227" class="st9" d="M1214.76,2022.96l82.28,77.53,1.49,15.89-82.28-77.98-1.49-15.45ZM1215.06,2105.1v9.21h-11.14v-1.49h2.52c2.28,0,4.21-.74,5.79-2.23,1.58-1.49,2.38-3.32,2.38-5.5h.45ZM1221.29,2105.1c0,2.18.79,4.01,2.38,5.5,1.68,1.49,3.61,2.23,5.79,2.23h2.52v1.49h-11.14v-9.21h.45ZM1214.76,2022.96l6.39,8.32.15,83.02h-6.68v-72.78c0-5.05-.25-9.41-.74-13.07-.4-3.66-.59-5.5-.59-5.5h1.49ZM1298.53,2025.19v72.18c0,3.17.1,6.24.3,9.21.2,2.87.4,5.25.59,7.13.3,1.78.45,2.67.45,2.67h-1.34l-6.54-7.87v-83.32h6.54ZM1298.08,2034.4v-9.21h11.14v1.49h-2.52c-2.18,0-4.11.74-5.79,2.23-1.58,1.49-2.38,3.32-2.38,5.5h-.45ZM1291.99,2034.4c-.1-2.18-.94-4.01-2.52-5.5-1.58-1.49-3.52-2.23-5.79-2.23h-2.52v-1.49h11.14v9.21h-.3Z"/>
      <path id="path229" class="st9" d="M1362.24,2025.64v88.67h-9.65v-88.67h9.65ZM1398.19,2025.04v4.46h-81.54v-4.46h81.54ZM1398.19,2029.2v10.25h-1.63v-2.38c0-2.08-.69-3.81-2.08-5.2-1.29-1.49-3.07-2.28-5.35-2.38v-.3h9.06ZM1398.19,2022.66v3.86l-16.63-1.49c1.98,0,4.06-.1,6.24-.3,2.28-.3,4.36-.64,6.24-1.04s3.27-.74,4.16-1.04ZM1352.89,2104.8v9.51h-10.84v-1.49h1.78c2.38,0,4.41-.79,6.09-2.38,1.68-1.58,2.57-3.47,2.67-5.64h.3ZM1361.8,2104.8h.45c.1,2.18.99,4.06,2.67,5.64,1.68,1.58,3.71,2.38,6.09,2.38h.74c.59,0,.89,0,.89,0v1.49h-10.84v-9.51ZM1325.71,2029.2v.3c-2.28.1-4.11.89-5.5,2.38-1.29,1.39-1.93,3.12-1.93,5.2v2.38h-1.63v-10.25h9.06ZM1316.65,2022.66c.89.3,2.23.64,4.01,1.04,1.88.4,3.96.74,6.24,1.04,2.28.2,4.41.3,6.39.3l-16.63,1.49v-3.86Z"/>
      <path id="path231" class="st9" d="M1439.77,2023.11l40.84,90.3h-11.73l-31.64-77.08,2.52-13.22ZM1411.11,2103.46c-1.09,2.97-.94,5.3.45,6.98,1.39,1.58,2.97,2.38,4.75,2.38h1.19v1.49h-28.37v-1.49h1.19c2.08,0,4.21-.69,6.39-2.08,2.18-1.49,4.06-3.91,5.64-7.28h8.76ZM1439.77,2023.11l1.04,10.25-34.01,80.5h-9.36l35.2-75.45s.25-.59.74-1.78c.59-1.19,1.24-2.62,1.93-4.31.79-1.78,1.49-3.52,2.08-5.2.59-1.68.94-3.02,1.04-4.01h1.34ZM1457.3,2079.7v4.46h-39.36v-4.46h39.36ZM1464.87,2103.46h11.29c1.49,3.37,3.32,5.79,5.5,7.28,2.18,1.39,4.26,2.08,6.24,2.08h1.19v1.49h-30.45v-1.49h1.19c1.68,0,3.22-.79,4.6-2.38,1.39-1.68,1.53-4.01.45-6.98h0Z"/>
      <path id="path233" class="st9" d="M1525.77,2025.64v88.67h-9.65v-88.67h9.65ZM1561.71,2025.04v4.46h-81.54v-4.46h81.54ZM1561.71,2029.2v10.25h-1.63v-2.38c0-2.08-.69-3.81-2.08-5.2-1.29-1.49-3.07-2.28-5.35-2.38v-.3h9.06ZM1561.71,2022.66v3.86l-16.63-1.49c1.98,0,4.06-.1,6.24-.3,2.28-.3,4.36-.64,6.24-1.04s3.27-.74,4.16-1.04ZM1516.41,2104.8v9.51h-10.84v-1.49h1.78c2.38,0,4.41-.79,6.09-2.38,1.68-1.58,2.57-3.47,2.67-5.64h.3ZM1525.32,2104.8h.45c.1,2.18.99,4.06,2.67,5.64,1.68,1.58,3.71,2.38,6.09,2.38h1.63v1.49h-10.84v-9.51ZM1489.23,2029.2v.3c-2.28.1-4.11.89-5.5,2.38-1.29,1.39-1.93,3.12-1.93,5.2v2.38h-1.63v-10.25h9.06ZM1480.17,2022.66c.89.3,2.23.64,4.01,1.04,1.88.4,3.96.74,6.24,1.04,2.28.2,4.41.3,6.39.3l-16.63,1.49v-3.86Z"/>
      <path id="path235" class="st9" d="M1593.49,2025.19v89.11h-9.36v-89.11h9.36ZM1584.58,2104.8v9.51h-12.62v-1.49h2.08c2.77,0,5.1-.79,6.98-2.38,1.98-1.58,3.02-3.47,3.12-5.64h.45ZM1593.05,2104.8h.45c.1,2.18,1.09,4.06,2.97,5.64,1.98,1.58,4.36,2.38,7.13,2.38h1.93l.15,1.49h-12.62v-9.51ZM1593.05,2034.7v-9.51h12.62l-.15,1.49h-1.93c-2.77,0-5.15.79-7.13,2.38-1.88,1.49-2.87,3.37-2.97,5.64h-.45ZM1584.58,2034.7h-.45c-.1-2.28-1.14-4.16-3.12-5.64-1.88-1.58-4.21-2.38-6.98-2.38h-2.08v-1.49h12.62v9.51Z"/>
      <path id="path237" class="st9" d="M1668.94,2023.11c6.93,0,13.42,1.14,19.46,3.42,6.14,2.18,11.49,5.35,16.04,9.51,4.65,4.16,8.27,9.11,10.84,14.85,2.57,5.64,3.86,11.93,3.86,18.86s-1.29,13.27-3.86,19.01c-2.57,5.64-6.19,10.55-10.84,14.7-4.55,4.16-9.9,7.38-16.04,9.65-6.04,2.18-12.53,3.27-19.46,3.27s-13.42-1.09-19.46-3.27c-6.04-2.28-11.39-5.5-16.04-9.65-4.55-4.16-8.12-9.06-10.69-14.7-2.57-5.74-3.86-12.08-3.86-19.01s1.29-13.22,3.86-18.86c2.57-5.74,6.14-10.69,10.69-14.85,4.65-4.16,10-7.33,16.04-9.51,6.04-2.28,12.53-3.42,19.46-3.42ZM1668.94,2111.93c7.33,0,13.96-1.78,19.9-5.35,5.94-3.56,10.64-8.52,14.11-14.85,3.47-6.34,5.2-13.66,5.2-21.98s-1.73-15.74-5.2-21.98c-3.47-6.34-8.17-11.29-14.11-14.85-5.94-3.56-12.58-5.35-19.9-5.35-7.23,0-13.81,1.78-19.75,5.35-5.94,3.56-10.64,8.52-14.11,14.85-3.47,6.24-5.2,13.57-5.2,21.98,0,8.32,1.73,15.64,5.2,21.98,3.47,6.34,8.17,11.29,14.11,14.85,5.94,3.56,12.53,5.35,19.75,5.35Z"/>
      <path id="path239" class="st9" d="M1741.72,2022.96l82.28,77.53,1.49,15.89-82.28-77.98-1.49-15.45ZM1742.02,2105.1v9.21h-11.14v-1.49h1.19c.89,0,1.34,0,1.34,0,2.28,0,4.21-.74,5.79-2.23,1.58-1.49,2.38-3.32,2.38-5.5h.45ZM1748.26,2105.1c0,2.18.79,4.01,2.38,5.5,1.68,1.49,3.61,2.23,5.79,2.23,0,0,.4,0,1.19,0h1.34v1.49h-11.14v-9.21h.45ZM1741.72,2022.96l6.39,8.32.15,83.02h-6.68v-72.78c0-5.05-.25-9.41-.74-13.07-.4-3.66-.59-5.5-.59-5.5h1.49ZM1825.49,2025.19v72.18c0,3.17.1,6.24.3,9.21.2,2.87.4,5.25.59,7.13.3,1.78.45,2.67.45,2.67h-1.34l-6.54-7.87v-83.32h6.54ZM1825.04,2034.4v-9.21h11.14v1.49h-2.52c-2.18,0-4.11.74-5.79,2.23-1.58,1.49-2.38,3.32-2.38,5.5h-.45ZM1818.95,2034.4c-.1-2.18-.94-4.01-2.52-5.5s-3.52-2.23-5.79-2.23h-2.52v-1.49h11.14v9.21h-.3Z"/>
      <path id="path241" class="st9" d="M1983.96,2070.94l-1.78,23.32c-2.57,4.26-5.84,8.07-9.8,11.44-3.86,3.27-8.47,5.89-13.81,7.87-5.25,1.88-11.29,2.82-18.12,2.82-10.3-.1-19.46-2.38-27.48-6.83-8.02-4.46-14.31-10.69-18.86-18.71-4.46-8.12-6.68-17.67-6.68-28.67s2.23-20.2,6.68-28.22c4.46-8.12,10.69-14.41,18.71-18.86,8.12-4.55,17.62-6.83,28.52-6.83,7.33,0,13.91.99,19.75,2.97,5.94,1.88,11.09,4.26,15.45,7.13l2.97,20.94h-1.34c-2.18-8.71-6.63-15.3-13.37-19.75-6.73-4.55-14.56-6.83-23.47-6.83s-16.29,2.08-22.72,6.24c-6.34,4.06-11.29,9.8-14.85,17.23-3.47,7.33-5.2,15.94-5.2,25.84s1.73,18.57,5.2,25.99c3.56,7.43,8.47,13.22,14.7,17.38,6.34,4.16,13.66,6.34,21.98,6.54,7.03,0,13.52-1.29,19.46-3.86,6.04-2.67,11.09-6.98,15.15-12.92,4.06-6.04,6.63-14.11,7.72-24.21h1.19Z"/>
      <path id="path243" class="st9" d="M2048.87,2023.11c6.93,0,13.42,1.14,19.46,3.42,6.14,2.18,11.49,5.35,16.04,9.51,4.65,4.16,8.27,9.11,10.84,14.85,2.57,5.64,3.86,11.93,3.86,18.86s-1.29,13.27-3.86,19.01c-2.57,5.64-6.19,10.55-10.84,14.7-4.55,4.16-9.9,7.38-16.04,9.65-6.04,2.18-12.53,3.27-19.46,3.27s-13.42-1.09-19.46-3.27c-6.04-2.28-11.39-5.5-16.04-9.65-4.55-4.16-8.12-9.06-10.69-14.7-2.57-5.74-3.86-12.08-3.86-19.01s1.29-13.22,3.86-18.86c2.57-5.74,6.14-10.69,10.69-14.85,4.65-4.16,10-7.33,16.04-9.51,6.04-2.28,12.53-3.42,19.46-3.42ZM2048.87,2111.93c7.33,0,13.96-1.78,19.9-5.35,5.94-3.56,10.64-8.52,14.11-14.85,3.47-6.34,5.2-13.66,5.2-21.98,0-8.42-1.73-15.74-5.2-21.98-3.47-6.34-8.17-11.29-14.11-14.85-5.94-3.56-12.58-5.35-19.9-5.35-7.23,0-13.81,1.78-19.75,5.35-5.94,3.56-10.64,8.52-14.11,14.85-3.47,6.24-5.2,13.57-5.2,21.98s1.73,15.64,5.2,21.98c3.47,6.34,8.17,11.29,14.11,14.85,5.94,3.56,12.53,5.35,19.75,5.35Z"/>
      <path id="path245" class="st9" d="M2208.53,2023.11l1.34,9.65-34.75,68.47s-.4.84-1.19,2.52c-.69,1.68-1.44,3.71-2.23,6.09-.79,2.28-1.39,4.46-1.78,6.54h-1.49l-2.08-9.36,42.18-83.92ZM2121.5,2104.35v9.95h-15.45v-1.49h2.23c2.57,0,4.8-.74,6.68-2.23,1.98-1.49,3.12-3.56,3.42-6.24h3.12ZM2125.95,2106.58c-.1,1.49.25,2.92,1.04,4.31.79,1.29,2.28,1.98,4.46,2.08h2.08v1.34h-8.47v-7.72h.89ZM2129.96,2023.11h1.49l2.97,8.76-9.21,82.43h-8.17l12.92-91.19ZM2131.45,2023.11l40.4,77.68-3.42,15.6-39.8-76.94,2.82-16.34ZM2209.87,2023.11l13.37,91.19h-11.29l-9.65-74.71,6.24-16.49h1.34ZM2218.78,2104.35h2.97c.4,2.67,1.58,4.75,3.56,6.24,1.98,1.49,4.21,2.23,6.68,2.23h2.23v1.49h-15.45v-9.95ZM2210.91,2106.58h1.04v7.72h-8.61v-1.34h2.23c2.28-.1,3.76-.84,4.46-2.23.79-1.39,1.09-2.77.89-4.16Z"/>
      <path id="path247" class="st9" d="M2338.93,2023.11l1.34,9.65-34.75,68.47s-.4.84-1.19,2.52c-.69,1.68-1.44,3.71-2.23,6.09-.79,2.28-1.39,4.46-1.78,6.54h-1.49l-2.08-9.36,42.18-83.92ZM2251.9,2104.35v9.95h-15.45v-1.49h2.23c2.57,0,4.8-.74,6.68-2.23,1.98-1.49,3.12-3.56,3.42-6.24h3.12ZM2256.36,2106.58c-.1,1.49.25,2.92,1.04,4.31.79,1.29,2.28,1.98,4.46,2.08h2.08v1.34h-8.47v-7.72h.89ZM2260.37,2023.11h1.49l2.97,8.76-9.21,82.43h-8.17l12.92-91.19ZM2261.85,2023.11l40.4,77.68-3.42,15.6-39.8-76.94,2.82-16.34ZM2340.27,2023.11l13.37,91.19h-11.29l-9.65-74.71,6.24-16.49h1.34ZM2349.18,2104.35h2.97c.4,2.67,1.58,4.75,3.56,6.24,1.98,1.49,4.21,2.23,6.68,2.23h2.23v1.49h-15.45v-9.95ZM2341.31,2106.58h1.04v7.72h-8.61v-1.34h2.23c2.28-.1,3.76-.84,4.46-2.23.79-1.39,1.09-2.77.89-4.16Z"/>
      <path id="path249" class="st9" d="M2395.37,2025.19v89.11h-9.36v-89.11h9.36ZM2386.46,2104.8v9.51h-12.62v-1.49h2.08c2.77,0,5.1-.79,6.98-2.38,1.98-1.58,3.02-3.47,3.12-5.64h.45ZM2394.93,2104.8h.45c.1,2.18,1.09,4.06,2.97,5.64,1.98,1.58,4.36,2.38,7.13,2.38h.89c.69,0,1.04,0,1.04,0l.15,1.49h-12.62v-9.51ZM2394.93,2034.7v-9.51h12.62l-.15,1.49s-.35,0-1.04,0h-.89c-2.77,0-5.15.79-7.13,2.38-1.88,1.49-2.87,3.37-2.97,5.64h-.45ZM2386.46,2034.7h-.45c-.1-2.28-1.14-4.16-3.12-5.64-1.88-1.58-4.21-2.38-6.98-2.38h-2.08v-1.49h12.62v9.51Z"/>
      <path id="path251" class="st9" d="M2463.4,2025.64v88.67h-9.65v-88.67h9.65ZM2499.34,2025.04v4.46h-81.54v-4.46h81.54ZM2499.34,2029.2v10.25h-1.63v-2.38c0-2.08-.69-3.81-2.08-5.2-1.29-1.49-3.07-2.28-5.35-2.38v-.3h9.06ZM2499.34,2022.66v3.86l-16.63-1.49c1.98,0,4.06-.1,6.24-.3,2.28-.3,4.36-.64,6.24-1.04,1.88-.4,3.27-.74,4.16-1.04h0ZM2454.04,2104.8v9.51h-10.84v-1.49h1.78c2.38,0,4.41-.79,6.09-2.38,1.68-1.58,2.57-3.47,2.67-5.64h.3ZM2462.95,2104.8h.45c.1,2.18.99,4.06,2.67,5.64,1.68,1.58,3.71,2.38,6.09,2.38h1.63v1.49h-10.84v-9.51ZM2426.86,2029.2v.3c-2.28.1-4.11.89-5.5,2.38-1.29,1.39-1.93,3.12-1.93,5.2v2.38h-1.63v-10.25h9.06ZM2417.8,2022.66c.89.3,2.23.64,4.01,1.04,1.88.4,3.96.74,6.24,1.04,2.28.2,4.41.3,6.39.3l-16.63,1.49v-3.86Z"/>
      <path id="path253" class="st9" d="M2551.47,2025.64v88.67h-9.65v-88.67h9.65ZM2587.41,2025.04v4.46h-81.54v-4.46h81.54ZM2587.41,2029.2v10.25h-1.63v-2.38c0-2.08-.69-3.81-2.08-5.2-1.29-1.49-3.07-2.28-5.35-2.38v-.3h9.06ZM2587.41,2022.66v3.86l-16.63-1.49c1.98,0,4.06-.1,6.24-.3,2.28-.3,4.36-.64,6.24-1.04,1.88-.4,3.27-.74,4.16-1.04h0ZM2542.11,2104.8v9.51h-10.84v-1.49h.89c.59,0,.89,0,.89,0,2.38,0,4.41-.79,6.09-2.38,1.68-1.58,2.57-3.47,2.67-5.64h.3ZM2551.03,2104.8h.45c.1,2.18.99,4.06,2.67,5.64,1.68,1.58,3.71,2.38,6.09,2.38h.74c.59,0,.89,0,.89,0v1.49h-10.84v-9.51ZM2514.94,2029.2v.3c-2.28.1-4.11.89-5.5,2.38-1.29,1.39-1.93,3.12-1.93,5.2v2.38h-1.63v-10.25h9.06ZM2505.88,2022.66c.89.3,2.23.64,4.01,1.04,1.88.4,3.96.74,6.24,1.04,2.28.2,4.41.3,6.39.3l-16.63,1.49v-3.86Z"/>
      <path id="path255" class="st9" d="M2617.86,2025.19v89.11h-9.51v-89.11h9.51ZM2657.82,2109.7l-.3,4.6h-39.95v-4.6h40.25ZM2650.83,2067.52v4.46h-33.27v-4.46h33.27ZM2657.67,2025.19v4.6h-40.1v-4.6h40.1ZM2666.13,2093.07l-8.17,21.24h-22.58l5.05-4.6c4.95,0,8.91-.69,11.88-2.08,3.07-1.49,5.54-3.47,7.43-5.94,1.88-2.57,3.52-5.45,4.9-8.61h1.49ZM2650.83,2071.68v8.47h-1.63v-1.93c0-1.68-.5-3.12-1.49-4.31-.99-1.29-2.52-1.93-4.6-1.93v-.3h7.72ZM2650.83,2059.35v8.47h-7.72v-.3c2.08,0,3.61-.59,4.6-1.78.99-1.29,1.49-2.77,1.49-4.46v-1.93h1.63ZM2657.67,2029.35v10.25h-1.63v-2.23c0-2.08-.69-3.86-2.08-5.35-1.29-1.49-3.07-2.23-5.35-2.23v-.45h9.06ZM2657.67,2022.81v3.86l-16.93-1.49c3.07,0,6.34-.25,9.8-.74,3.47-.59,5.84-1.14,7.13-1.63h0ZM2608.65,2104.8l1.93,9.51h-12.92v-1.49s.35,0,1.04,0c.69,0,1.04,0,1.04,0,2.48,0,4.51-.79,6.09-2.38,1.58-1.58,2.43-3.47,2.52-5.64h.3ZM2608.65,2034.55h-.3c-.1-2.28-.94-4.16-2.52-5.64-1.58-1.49-3.61-2.23-6.09-2.23h-2.08v-1.49h12.92l-1.93,9.36Z"/>
      <path id="path257" class="st9" d="M2697.47,2025.19v89.11h-9.51v-89.11h9.51ZM2737.42,2109.7l-.3,4.6h-39.95v-4.6h40.25ZM2730.44,2067.52v4.46h-33.27v-4.46h33.27ZM2737.28,2025.19v4.6h-40.1v-4.6h40.1ZM2745.74,2093.07l-8.17,21.24h-22.58l5.05-4.6c4.95,0,8.91-.69,11.88-2.08,3.07-1.49,5.54-3.47,7.43-5.94,1.88-2.57,3.52-5.45,4.9-8.61h1.49ZM2730.44,2071.68v8.47h-1.63v-1.93c0-1.68-.5-3.12-1.49-4.31-.99-1.29-2.52-1.93-4.6-1.93v-.3h7.72ZM2730.44,2059.35v8.47h-7.72v-.3c2.08,0,3.61-.59,4.6-1.78.99-1.29,1.49-2.77,1.49-4.46v-1.93h1.63ZM2737.28,2029.35v10.25h-1.63v-2.23c0-2.08-.69-3.86-2.08-5.35-1.29-1.49-3.07-2.23-5.35-2.23v-.45h9.06ZM2737.28,2022.81v3.86l-16.93-1.49c3.07,0,6.34-.25,9.8-.74,3.47-.59,5.84-1.14,7.13-1.63h0ZM2688.26,2104.8l1.93,9.51h-12.92v-1.49s.35,0,1.04,0c.69,0,1.04,0,1.04,0,2.48,0,4.51-.79,6.09-2.38,1.58-1.58,2.43-3.47,2.52-5.64h.3ZM2688.26,2034.55h-.3c-.1-2.28-.94-4.16-2.52-5.64-1.58-1.49-3.61-2.23-6.09-2.23h-2.08v-1.49h12.92l-1.93,9.36Z"/>
    </g>
  </g>
  <g id="id_1739831503242">
    <g id="text167">
      <path id="path260" class="st13" d="M724.52,2222.4v81.69c0,8.91,1.61,16.77,4.83,23.58,3.34,6.81,7.98,12.13,13.92,15.97,5.94,3.71,12.81,5.57,20.61,5.57,8.29,0,15.53-1.79,21.72-5.38,6.19-3.59,11.02-8.54,14.48-14.85,3.47-6.44,5.2-13.92,5.2-22.46v-84.1h8.73v84.1c0,9.65-2.1,18.13-6.31,25.43-4.08,7.18-9.9,12.81-17.45,16.89-7.55,4.08-16.34,6.13-26.36,6.13s-19.31-1.98-27.11-5.94c-7.67-4.08-13.68-9.72-18.01-16.89-4.21-7.3-6.31-15.78-6.31-25.43v-84.29h12.07ZM713.01,2222.4v11.14h-.56c0-2.72-.99-4.95-2.97-6.68-1.86-1.73-4.15-2.6-6.87-2.6h-2.97v-1.86h13.37ZM737.33,2222.4v1.86h-1.49c-.99,0-1.49,0-1.49,0-2.72,0-5.07.87-7.05,2.6-1.86,1.73-2.78,3.96-2.78,6.68h-.37v-11.14h13.18ZM805.84,2222.4v11.14h-.56c0-2.72-.99-4.95-2.97-6.68-1.86-1.73-4.15-2.6-6.87-2.6h-2.97v-1.86h13.37ZM826.82,2222.4v1.86h-2.97c-2.72,0-5.07.87-7.05,2.6-1.86,1.73-2.78,3.96-2.78,6.68h-.37v-11.14h13.18Z"/>
      <path id="path262" class="st13" d="M853.37,2238.18l102.85,96.91,1.86,19.87-102.85-97.47-1.86-19.31ZM853.74,2340.84v11.51h-13.92v-1.86h3.16c2.85,0,5.26-.93,7.24-2.78,1.98-1.86,2.97-4.15,2.97-6.87h.56ZM861.54,2340.84c0,2.72.99,5.01,2.97,6.87,2.1,1.86,4.52,2.78,7.24,2.78h3.16v1.86h-13.92v-11.51h.56ZM853.37,2238.18l7.98,10.4.19,103.78h-8.35v-90.97c0-6.31-.31-11.76-.93-16.34-.5-4.58-.74-6.87-.74-6.87h1.86ZM958.08,2240.96v90.23c0,3.96.12,7.8.37,11.51.25,3.59.5,6.56.74,8.91.37,2.23.56,3.34.56,3.34h-1.67l-8.17-9.84v-104.15h8.17ZM957.52,2252.47v-11.51h13.92v1.86h-3.16c-2.72,0-5.14.93-7.24,2.78-1.98,1.86-2.97,4.15-2.97,6.87h-.56ZM949.91,2252.47c-.12-2.72-1.18-5.01-3.16-6.87-1.98-1.86-4.39-2.78-7.24-2.78h-3.16v-1.86h13.92v11.51h-.37Z"/>
      <path id="path264" class="st13" d="M1015.07,2240.96v111.39h-11.7v-111.39h11.7ZM1003.93,2340.47v11.88h-15.78v-1.86h2.6c3.47,0,6.37-.99,8.73-2.97,2.48-1.98,3.77-4.33,3.9-7.05h.56ZM1014.52,2340.47h.56c.12,2.72,1.36,5.07,3.71,7.05,2.48,1.98,5.45,2.97,8.91,2.97h2.41l.19,1.86h-15.78v-11.88ZM1014.52,2252.84v-11.88h15.78l-.19,1.86h-1.3c-.74,0-1.11,0-1.11,0-3.47,0-6.44.99-8.91,2.97-2.35,1.86-3.59,4.21-3.71,7.05h-.56ZM1003.93,2252.84h-.56c-.12-2.85-1.42-5.2-3.9-7.05-2.35-1.98-5.26-2.97-8.73-2.97h-2.6v-1.86h15.78v11.88Z"/>
      <path id="path266" class="st13" d="M1100.1,2241.52v110.84h-12.07v-110.84h12.07ZM1145.03,2240.78v5.57h-101.92v-5.57h101.92ZM1145.03,2245.97v12.81h-2.04v-2.97c0-2.6-.87-4.77-2.6-6.5-1.61-1.86-3.84-2.85-6.68-2.97v-.37h11.32ZM1145.03,2237.81v4.83l-20.79-1.86c2.48,0,5.07-.12,7.8-.37,2.85-.37,5.45-.8,7.8-1.3,2.35-.5,4.08-.93,5.2-1.3ZM1088.41,2340.47v11.88h-13.55v-1.86h2.23c2.97,0,5.51-.99,7.61-2.97,2.1-1.98,3.22-4.33,3.34-7.05h.37ZM1099.55,2340.47h.56c.12,2.72,1.24,5.07,3.34,7.05,2.1,1.98,4.64,2.97,7.61,2.97h2.04v1.86h-13.55v-11.88ZM1054.43,2245.97v.37c-2.85.12-5.14,1.11-6.87,2.97-1.61,1.73-2.41,3.9-2.41,6.5v2.97h-2.04v-12.81h11.32ZM1043.11,2237.81c1.11.37,2.78.8,5.01,1.3,2.35.5,4.95.93,7.8,1.3,2.85.25,5.51.37,7.98.37l-20.79,1.86v-4.83Z"/>
      <path id="path268" class="st13" d="M1183.09,2240.96v111.39h-11.88v-111.39h11.88ZM1233.03,2346.6l-.37,5.76h-49.94v-5.76h50.31ZM1224.31,2293.87v5.57h-41.59v-5.57h41.59ZM1232.85,2240.96v5.76h-50.13v-5.76h50.13ZM1243.43,2325.81l-10.21,26.55h-28.22l6.31-5.76c6.19,0,11.14-.87,14.85-2.6,3.84-1.86,6.93-4.33,9.28-7.43,2.35-3.22,4.39-6.81,6.13-10.77h1.86ZM1224.31,2299.07v10.58h-2.04v-2.41c0-2.1-.62-3.9-1.86-5.38-1.24-1.61-3.16-2.41-5.76-2.41v-.37h9.65ZM1224.31,2283.66v10.58h-9.65v-.37c2.6,0,4.52-.74,5.76-2.23,1.24-1.61,1.86-3.47,1.86-5.57v-2.41h2.04ZM1232.85,2246.16v12.81h-2.04v-2.78c0-2.6-.87-4.83-2.6-6.68-1.61-1.86-3.84-2.78-6.68-2.78v-.56h11.32ZM1232.85,2237.99v4.83l-21.16-1.86c3.84,0,7.92-.31,12.25-.93,4.33-.74,7.3-1.42,8.91-2.04ZM1171.58,2340.47l2.41,11.88h-16.15v-1.86h2.6c3.09,0,5.63-.99,7.61-2.97,1.98-1.98,3.03-4.33,3.16-7.05h.37ZM1171.58,2252.66h-.37c-.12-2.85-1.18-5.2-3.16-7.05s-4.52-2.78-7.61-2.78h-2.6v-1.86h16.15l-2.41,11.7Z"/>
      <path id="path270" class="st13" d="M1319.36,2240.96c12.25,0,22.84,2.23,31.75,6.68,8.91,4.46,15.78,10.89,20.61,19.31,4.83,8.29,7.24,18.19,7.24,29.7,0,11.51-2.41,21.41-7.24,29.7-4.83,8.29-11.7,14.73-20.61,19.31-8.91,4.46-19.49,6.68-31.75,6.68h-39.54l-.37-5.57h39.92c14.36,0,25.62-4.46,33.79-13.37,8.29-9.04,12.44-21.29,12.44-36.76s-4.15-27.66-12.44-36.57c-8.17-9.04-19.43-13.55-33.79-13.55,0,0-1.61,0-4.83,0-3.22,0-7.92,0-14.11,0-6.19,0-13.8,0-22.84,0v-5.57h41.77ZM1282.42,2240.96v111.39h-12.07v-111.39h12.07ZM1270.72,2340.29v12.07h-13.37v-1.86h2.41c2.97,0,5.45-.99,7.43-2.97,1.98-2.1,3.03-4.52,3.16-7.24h.37ZM1270.72,2253.03h-.37c-.12-2.97-1.24-5.38-3.34-7.24-1.98-1.98-4.46-2.97-7.43-2.97h-2.23v-1.86h13.37v12.07Z"/>
    </g>
  </g>
</svg>